HIERARCHY
ROOT Hips
{
	OFFSET 0.000000 0.000000 0.000000
	CHANNELS 6 Xposition Yposition Zposition Zrotation Yrotation Xrotation 
	JOINT LHipJoint
	{
		OFFSET 0.000000 0.000000 0.000000
		CHANNELS 3 Zrotation Yrotation Xrotation
		JOINT LeftUpLeg
		{
			OFFSET 1.363060 -1.794630 0.839290
			CHANNELS 3 Zrotation Yrotation Xrotation
			JOINT LeftLeg
			{
				OFFSET 2.448110 -6.726130 0.000000
				CHANNELS 3 Zrotation Yrotation Xrotation
				JOINT LeftFoot
				{
					OFFSET 2.562200 -7.039590 0.000000
					CHANNELS 3 Zrotation Yrotation Xrotation
					JOINT LeftToeBase
					{
						OFFSET 0.157640 -0.433110 2.322550
						CHANNELS 3 Zrotation Yrotation Xrotation
						End Site
						{
							OFFSET 0.000000 0.000000 0.000000
						}
					}
				}
			}
		}
	}
	JOINT RHipJoint
	{
		OFFSET 0.000000 0.000000 0.000000
		CHANNELS 3 Zrotation Yrotation Xrotation
		JOINT RightUpLeg
		{
			OFFSET -1.305520 -1.794630 0.839290
			CHANNELS 3 Zrotation Yrotation Xrotation
			JOINT RightLeg
			{
				OFFSET -2.542530 -6.985550 0.000000
				CHANNELS 3 Zrotation Yrotation Xrotation
				JOINT RightFoot
				{
					OFFSET -2.568260 -7.056230 0.000000
					CHANNELS 3 Zrotation Yrotation Xrotation
					JOINT RightToeBase
					{
						OFFSET -0.164730 -0.452590 2.363150
						CHANNELS 3 Zrotation Yrotation Xrotation
						End Site
						{
							OFFSET 0.000000 0.000000 0.000000
						}
					}
				}
			}
		}
	}
	JOINT LowerBack
	{
		OFFSET 0.000000 0.000000 0.000000
		CHANNELS 3 Zrotation Yrotation Xrotation
		JOINT Spine
		{
			OFFSET 0.028270 2.035590 -0.193380
			CHANNELS 3 Zrotation Yrotation Xrotation
			JOINT Spine1
			{
				OFFSET 0.056720 2.048850 -0.042750
				CHANNELS 3 Zrotation Yrotation Xrotation
				JOINT Neck
				{
					OFFSET 0.000000 0.000000 0.000000
					CHANNELS 3 Zrotation Yrotation Xrotation
					JOINT Neck1
					{
						OFFSET -0.054170 1.746240 0.172020
						CHANNELS 3 Zrotation Yrotation Xrotation
						JOINT Head
						{
							OFFSET 0.104070 1.761360 -0.123970
							CHANNELS 3 Zrotation Yrotation Xrotation
							End Site
							{
								OFFSET 0.000000 0.000000 0.000000
							}
						}
					}
				}
				JOINT LeftShoulder
				{
					OFFSET 0.000000 0.000000 0.000000
					CHANNELS 3 Zrotation Yrotation Xrotation
					JOINT LeftArm
					{
						OFFSET 3.362410 1.200890 -0.311210
						CHANNELS 3 Zrotation Yrotation Xrotation
						JOINT LeftForeArm
						{
							OFFSET 4.983000 -0.000000 -0.000000
							CHANNELS 3 Zrotation Yrotation Xrotation
							JOINT LeftHand
							{
								OFFSET 3.483560 -0.000000 -0.000000
								CHANNELS 3 Zrotation Yrotation Xrotation
								JOINT LeftFingerBase
								{
									OFFSET 0.000000 0.000000 0.000000
									CHANNELS 3 Zrotation Yrotation Xrotation
									JOINT LeftHandIndex1
									{
										OFFSET 0.715260 -0.000000 -0.000000
										CHANNELS 3 Zrotation Yrotation Xrotation
										End Site
										{
											OFFSET 0.000000 0.000000 0.000000
										}
									}
								}
								JOINT LThumb
								{
									OFFSET 0.000000 0.000000 0.000000
									CHANNELS 3 Zrotation Yrotation Xrotation
									End Site
									{
										OFFSET 0.000000 0.000000 0.000000
									}
								}
							}
						}
					}
				}
				JOINT RightShoulder
				{
					OFFSET 0.000000 0.000000 0.000000
					CHANNELS 3 Zrotation Yrotation Xrotation
					JOINT RightArm
					{
						OFFSET -3.136600 1.374050 -0.404650
						CHANNELS 3 Zrotation Yrotation Xrotation
						JOINT RightForeArm
						{
							OFFSET -5.241900 -0.000000 -0.000000
							CHANNELS 3 Zrotation Yrotation Xrotation
							JOINT RightHand
							{
								OFFSET -3.444170 -0.000000 -0.000000
								CHANNELS 3 Zrotation Yrotation Xrotation
								JOINT RightFingerBase
								{
									OFFSET 0.000000 0.000000 0.000000
									CHANNELS 3 Zrotation Yrotation Xrotation
									JOINT RightHandIndex1
									{
										OFFSET -0.622530 -0.000000 -0.000000
										CHANNELS 3 Zrotation Yrotation Xrotation
										End Site
										{
											OFFSET 0.000000 0.000000 0.000000
										}
									}
								}
								JOINT RThumb
								{
									OFFSET 0.000000 0.000000 0.000000
									CHANNELS 3 Zrotation Yrotation Xrotation
									End Site
									{
										OFFSET 0.000000 0.000000 0.000000
									}
								}
							}
						}
					}
				}
			}
		}
	}
}
MOTION
Frames: 6
Frame Time: 0.008333
6.441802 16.807560 -6.491221 -174.222824 36.407895 -175.305005 -8.713483 2.279998 -0.185681 -19.817605 20.181652 -32.570989 -2.566131 0.847538 28.685015 3.104572 15.012579 -16.732911 177.551900 -0.000000 -1.639900 11.848444 -4.270378 -0.239321 -5.762892 -13.959216 9.447234 -0.991845 -1.952056 29.597710 -1.899591 -0.997022 40.295343 0.045100 -0.000000 -82.415500 -4.707023 0.478213 -2.126663 -1.556263 0.708804 -2.767058 -5.038048 0.667729 2.505929 9.910142 -13.331992 -9.557927 -1.169388 -0.066821 -0.490214 0.000000 0.000000 0.000000 -1.495167 24.290015 1.203154 -69.867708 26.846276 -17.489042 -4.761503 -6.595562 -0.014177 1.219888 5.481702 0.066880 -0.162202 -0.082888 0.000000 0.000000 0.000000 0.000000 0.000000 0.000000 0.000000 8.577883 -8.088492 0.027802 40.435832 13.032913 4.524247 1.176564 55.455212 0.012607 3.590686 3.760814 0.124262 0.000629 -0.186386 -0.000000 0.000000 0.000000 0.000000 0.000000 0.000000 0.000000 
6.495852 16.801222 -6.626871 -174.334610 35.925945 -175.507497 -8.722034 2.328334 -0.246860 -19.780218 20.222975 -31.957504 -2.570238 0.877463 29.109804 3.047756 14.670999 -17.083260 177.475800 -0.000000 -1.226200 11.953035 -4.146298 -0.303723 -5.959723 -14.188581 8.517877 -1.049237 -1.974344 31.816363 -2.080252 -2.410386 40.579229 -0.923300 -0.000000 -78.869900 -4.837003 0.361142 -1.981123 -1.584625 0.603017 -2.747757 -5.073359 0.564219 2.472723 9.998163 -13.419020 -9.601101 -1.206155 -0.068982 -0.503039 0.000000 0.000000 0.000000 -1.464970 24.032344 1.232551 -69.904395 26.076046 -17.384057 -4.722141 -6.579112 -0.013367 1.430282 5.348738 0.075193 -0.160252 -0.079873 0.000000 0.000000 0.000000 0.000000 0.000000 0.000000 0.000000 8.788403 -8.163190 -0.011841 40.986810 12.761034 4.730406 1.161713 56.100304 0.012514 3.518226 3.831677 0.123969 0.000774 -0.188322 -0.000000 0.000000 0.000000 0.000000 0.000000 0.000000 0.000000 
6.546224 16.795966 -6.761073 -174.434141 35.419811 -175.698272 -8.735421 2.369391 -0.295956 -19.715732 20.186885 -31.265792 -2.571867 0.894925 29.434591 3.010843 14.404589 -17.509980 177.373500 0.000000 -0.750700 12.039455 -4.018337 -0.390562 -6.099994 -14.443892 7.521591 -1.097263 -2.015214 34.062939 -2.249246 -4.111271 40.292489 -2.092200 -0.000000 -75.339800 -4.931598 0.243843 -1.825546 -1.605959 0.494859 -2.725889 -5.109803 0.458589 2.442179 10.082712 -13.512946 -9.639770 -1.246952 -0.071522 -0.514622 0.000000 0.000000 0.000000 -1.428199 23.737163 1.261015 -69.976740 25.213295 -17.199383 -4.676258 -6.584715 -0.012476 1.674182 5.201624 0.084207 -0.157993 -0.076709 0.000000 0.000000 0.000000 0.000000 0.000000 0.000000 0.000000 9.009923 -8.249928 -0.049373 41.567358 12.475771 4.918381 1.151224 56.697395 0.012448 3.453983 3.916881 0.124378 0.001039 -0.190118 -0.000000 0.000000 0.000000 0.000000 0.000000 0.000000 0.000000 
6.592986 16.792171 -6.894061 -174.516963 34.903397 -175.871067 -8.754952 2.403298 -0.332929 -19.622496 20.078540 -30.507829 -2.569878 0.901600 29.663138 2.992441 14.217981 -17.981186 177.252500 0.000000 -0.224799 12.105763 -3.891220 -0.492093 -6.166671 -14.684151 6.460918 -1.141366 -2.078181 36.309734 -2.402606 -5.998221 39.404104 -3.354900 0.000000 -72.028200 -4.986923 0.129903 -1.668742 -1.619901 0.387505 -2.703124 -5.148203 0.353893 2.414566 10.162982 -13.609072 -9.670158 -1.291624 -0.074494 -0.523881 0.000000 0.000000 0.000000 -1.390621 23.412260 1.286096 -70.076095 24.268287 -16.926500 -4.625349 -6.632086 -0.011560 1.931820 5.048596 0.093124 -0.155397 -0.073456 0.000000 0.000000 0.000000 0.000000 0.000000 0.000000 0.000000 9.239585 -8.343523 -0.085462 42.183092 12.175687 5.085934 1.145674 57.231558 0.012412 3.400952 4.015205 0.125387 0.001417 -0.191693 -0.000000 0.000000 0.000000 0.000000 0.000000 0.000000 0.000000 
6.636338 16.790194 -7.025967 -174.581629 34.389417 -176.021556 -8.781689 2.430628 -0.358729 -19.502252 19.909267 -29.699035 -2.563774 0.899345 29.799991 2.989704 14.108124 -18.463614 -2.879000 0.000000 -0.336600 12.151311 -3.768908 -0.599719 -6.146739 -14.871850 5.336826 -1.185514 -2.164049 38.530990 -2.536512 -7.943965 37.913590 -4.581000 0.000001 -68.978000 -5.000598 0.022260 -1.519318 -1.626286 0.283616 -2.681367 -5.189153 0.252640 2.389176 10.236584 -13.699162 -9.687797 -1.340068 -0.077966 -0.529536 0.000000 0.000000 0.000000 -1.359593 23.063560 1.305733 -70.193195 23.255977 -16.550182 -4.571063 -6.746210 -0.010676 2.181123 4.900071 0.101141 -0.152440 -0.070199 0.000000 0.000000 0.000000 0.000000 0.000000 0.000000 0.000000 9.471888 -8.434978 -0.121024 42.843308 11.853866 5.228363 1.145553 57.690520 0.012413 3.363204 4.122151 0.127198 0.001882 -0.192946 -0.000000 0.000000 0.000000 0.000000 0.000000 0.000000 0.000000 
6.676506 16.790336 -7.156933 -174.626569 33.888971 -176.145355 -8.816625 2.451919 -0.375647 -19.357630 19.695898 -28.856900 -2.553786 0.890076 29.850843 2.998378 14.062865 -18.927178 -3.012500 0.000001 -0.913201 12.176191 -3.653778 -0.703343 -6.025678 -14.967629 4.155709 -1.231464 -2.269356 40.687630 -2.650556 -9.843693 35.882578 -5.663200 0.000000 -66.463000 -4.971885 -0.077251 -1.384905 -1.625133 0.184878 -2.661800 -5.232903 0.156429 2.367146 10.302483 -13.782715 -9.690767 -1.391858 -0.081936 -0.531028 0.000000 0.000000 0.000000 -1.339541 22.702007 1.317831 -70.318897 22.182483 -16.070876 -4.515122 -6.940453 -0.009860 2.401364 4.760236 0.107360 -0.149151 -0.066943 0.000000 0.000000 0.000000 0.000000 0.000000 0.000000 0.000000 9.704854 -8.524292 -0.157131 43.551528 11.517177 5.349779 1.151150 58.057400 0.012445 3.336508 4.233705 0.129410 0.002500 -0.193790 -0.000000 0.000000 0.000000 0.000000 0.000000 0.000000 0.000000 
